<?xml version="1.0" standalone="no"?>
<!DOCTYPE svg PUBLIC "-//W3C//DTD SVG 20010904//EN"
 "http://www.w3.org/TR/2001/REC-SVG-20010904/DTD/svg10.dtd">
<svg version="1.0" xmlns="http://www.w3.org/2000/svg"
 width="241.000000pt" height="209.000000pt" viewBox="0 0 241.000000 209.000000"
 preserveAspectRatio="xMidYMid meet">

<g transform="translate(0.000000,209.000000) scale(0.100000,-0.100000)"
fill="#000000" stroke="none">
<path d="M1095 1808 c-185 -35 -344 -202 -376 -396 -9 -56 -17 -76 -33 -84
-40 -22 -127 -112 -155 -162 -48 -86 -65 -152 -65 -251 0 -135 40 -237 132
-337 131 -141 363 -189 544 -111 35 14 39 14 105 -12 90 -37 222 -45 308 -20
164 47 282 157 335 309 64 187 19 370 -127 514 -66 66 -74 77 -79 120 -13 119
-61 220 -145 303 -113 111 -279 159 -444 127z m259 -127 c76 -37 147 -109 184
-189 24 -50 27 -69 27 -162 0 -97 -2 -110 -30 -164 -16 -33 -50 -79 -74 -103
-43 -43 -44 -44 -69 -27 -24 16 -27 16 -69 -7 -24 -13 -43 -27 -43 -30 0 -7
114 -81 142 -91 37 -14 167 111 210 202 14 30 29 64 33 75 6 18 10 16 41 -20
60 -71 87 -139 92 -237 3 -65 0 -101 -13 -140 -49 -150 -184 -256 -339 -266
-159 -10 -306 89 -366 246 -27 71 -26 100 4 113 21 10 25 20 28 65 2 38 -1 54
-9 54 -7 0 -47 -19 -88 -42 -82 -46 -82 -46 -66 -134 15 -79 48 -155 91 -212
22 -29 40 -54 40 -56 0 -12 -111 -28 -164 -23 -125 10 -243 93 -302 212 -26
55 -29 69 -29 165 0 95 3 111 29 167 35 76 113 153 193 191 49 23 72 27 143
27 110 0 150 -16 150 -59 0 -26 7 -36 46 -60 58 -36 64 -29 64 76 l0 78 -38
19 c-77 39 -150 53 -249 49 l-94 -4 7 31 c19 88 111 207 192 249 103 53 223
56 326 7z"/>
</g>
</svg>
